<svg version="1.2" xmlns="http://www.w3.org/2000/svg" viewBox="0 0 4000 1242" width="2362" height="709">
	<title>tuneify-high-resolution-logo-transparent-pdf</title>
	<style>
		.s0 { fill: #1ed760 } 
	</style>
	<path id="Path 2" class="s0" d="m1444.5 171.9l5.7 7.5-5.7 58.3-105.3-5.6h-61.1l-2.8 354.5 2.8 188h-76.2l5.7-181.4-4.7-361.1h-61.2l-107.1 5.6-4.7-7.5 5.6-58.3zm473 134.5l-2.9 237.9v67.7q1 79.9-48.5 124.1-49.3 44.2-141.4 44.2-91.2 0-139.2-43.7-47.9-43.8-46-124.6l0.9-71.5-0.9-234.1h70.5l-3.8 294.3q-0.9 59.2 29.5 89.3 30.7 30.1 91.8 30.1 60.2 0 91.2-30.1 31.1-30.1 30.1-89.3l-2.8-294.3zm544.4-1.9l-2.8 330 0.9 140.1h-75.2l-246.3-357.3h-4.7l-1 201.2 1.9 156.1h-63.9l2.8-138.2-1.9-330h74.3l246.3 357.3h6.6l-1.9-354.5zm329.9 413.7l125-3.7 5.7 5.6-6.6 54.5h-284.9l2.8-141-2.8-327.2h286.8l4.7 5.6-5.7 54.5-118.4-3.7-97.8 0.9-1 142 93.1 1 81.8-2.9 4.7 6.6-5.6 55.5-86.5-2.8-87.5 0.9-0.9 63.9 0.9 89.4zm318.8-411.9l-2.8 321.6 1.9 146.7h-69.6l2.8-141-2.8-327.3zm323.4 56.5l-85.5 0.9-1 154.2 80.9 0.9 82.7-2.8 4.7 6.6-4.7 53.6-89.3-0.9-75.2 0.9v51.7l1.9 146.7h-69.6l1.9-141-1.9-327.3h272.7l3.7 5.7-5.6 54.5zm377 248.2l-0.9 29.2 2.8 134.5h-70.5l3.8-134.5-1-29.2-158.9-304.6h77.1l9.4 27.3 105.3 201.2h4.7l114.7-198.4 12.3-30.1h75.2z"/>
	<path id="Path 3" fill-rule="evenodd" class="s0" d="m1020.4 1070.4v-8.2q0-1.8 0.8-2.9 0.8-1.1 2.4-1.3l11.1-2.3v-113.1l-11.1-2.4q-1.6-0.4-2.4-1.4-0.8-1-0.8-2.8v-8.1h28.7q2.5 0 3.8 0.4 1.3 0.6 2.7 2.9l49.3 87.7q1.6 2.6 2.5 5 0.9 2.5 1.9 5.3 1-2.6 2.1-5.3 1.1-2.6 2.4-5.2l48.3-87.5q1.4-2.3 2.7-2.9 1.3-0.4 3.9-0.4h28.6v8.1q0 1.8-0.8 2.8-0.8 1-2.4 1.4l-11.1 2.4v113.1l11.1 2.3q1.6 0.2 2.4 1.3 0.8 1.1 0.8 2.9v8.2h-27.2l-2.2-15.5-1.8 0.3v-89.6q0-2 0.1-4.4 0.1-2.3 0.3-4.9l-48.9 89q-2.4 4.6-6.9 4.6h-2.8q-4.4 0-7-4.6l-49.9-89.2q0.4 2.6 0.5 5 0.1 2.5 0.1 4.5v89.6l-1.7-0.3-2.2 15.5zm47.5 0h-16.3v-15.2l13.1 2.8q1.6 0.2 2.4 1.3 0.8 1.1 0.8 2.9zm98.1-15.1v15.1h-16.3v-8.1q0-1.8 0.8-2.9 0.8-1.1 2.4-1.3zm73.1 16.7q-7.9 0-14.3-3.1-6.3-3.1-10.1-9-3.8-6-3.8-14.7 0-6 3.3-11.4 3.3-5.5 10.6-9.9 7.4-4.2 19.2-7 11.8-2.7 28.9-3.1v-7.8q0-11.7-5-17.8-5.1-6-14.8-6-5.2 0-10.9 2.6-5.6 2.7-10.4 5.4-4.8 2.7-7.6 2.7-1.7 0-3.1-1-1.2-1-2-2.4l-3.2-5.5q8.3-8.2 18-12.2 9.6-3.9 21.4-3.9 11.3 0 19 4.7 7.8 4.8 11.8 13.3 4.1 8.6 4.1 20.1v49.7l11.2 2.4q1.5 0.2 2.3 1.3 0.8 1.1 0.8 2.9v8.1h-22q-2.6 0-4.2-0.8-1.6-0.8-2.2-3.4l-2-9.3q-7.9 7.2-15.9 11.1-7.9 4-19.1 4zm5.2-12.5q9 0 15.7-3.6 6.8-3.6 12.9-9.9v-20.9q-10.3 0.2-18.6 1.5-8.4 1.3-14.3 3.5-5.8 2.3-8.9 5.8-3.1 3.5-3.1 8.5 0 7.9 4.7 11.5 4.7 3.6 11.6 3.6zm68.4 10.9v-8.1q0-1.8 0.8-2.9 0.8-1.1 2.4-1.3l11.1-2.4v-71.4l-11.1-2.3q-1.6-0.4-2.4-1.4-0.8-1-0.8-2.8v-8.1h24.8q4 0 4.8 3.7l1.4 11q6.5-7.4 14.7-11.9 8.1-4.4 18.7-4.4 11.1 0 18.5 4.7 7.5 4.8 11.4 13.4 3.9 8.7 3.9 20v49.5l11.1 2.4q1.6 0.2 2.4 1.3 0.8 1.1 0.8 2.9v8.1h-32v-64.2q0-11.3-5.3-17.7-5.3-6.3-16-6.3-7.7 0-14.6 3.7-6.9 3.8-12.6 10.4v59.4l-3.8-0.8-2.2 15.5zm46.3 0h-14.3v-14.7l11.2 2.4q1.5 0.2 2.3 1.3 0.8 1.1 0.8 2.9zm74.3 0v-8.2q0-1.8 0.8-2.9 0.8-1.1 2.4-1.3l11.1-2.3v-71.4l-11.1-2.4q-1.6-0.4-2.4-1.4-0.8-1-0.8-2.8v-8.1h24.9q3.9 0 4.7 3.8l1.4 10.9q6.6-7.3 14.7-11.8 8.2-4.5 18.7-4.5 11.1 0 18.6 4.8 7.4 4.7 11.3 13.4 3.9 8.6 3.9 20v49.5l11.1 2.3q1.6 0.2 2.4 1.3 0.8 1.1 0.8 2.9v8.2h-32v-64.2q0-11.4-5.2-17.7-5.3-6.4-16.1-6.4-7.7 0-14.5 3.8-6.9 3.8-12.7 10.3v59.5l-3.8-0.8-2.1 15.5zm46.3 0h-14.3v-14.7l11.1 2.3q1.6 0.2 2.4 1.3 0.8 1.1 0.8 2.9zm195.1 1.6q-15.9 0-28.9-5.5-13-5.4-22.4-16-8.9-10.3-13.2-23.5-4.2-13.2-4.2-27.3 0-16.5 5.2-30 5.3-13.4 14.6-22.9 9.6-9.7 22.6-15.1 13-5.4 28.3-5.4 8.2 0 15.6 1.4 7.5 1.4 14.8 3.8 7.4 2.4 14.9 5.4v14.5l-16.3-5 0.3 1.6q-5.3-1.7-11.6-3.2-7.6-1.8-16.3-1.8-15.9 0-27.7 7.1-11.8 7-18.3 19.7-6.5 12.8-6.5 29.9 0 15.7 5.8 28.3 5.8 12.6 17.4 20 11.6 7.3 28.7 7.3 9.5 0 17.8-2.9 8.2-2.9 16.2-10 1-0.8 1.8-1.1 0.8-0.3 1.6-0.3 1.6 0 2.7 1.2l7.6 8.3q-7.9 9.2-20.4 15.3-12.4 6.2-30.1 6.2zm47.3-120.6v18h-9.1q-1.6 0-2.7-0.7-1.1-0.6-1.5-2.4l-2.7-18.3q1.1 0.4 2.1 0.8zm16.5 119v-8.1q0-1.8 0.8-2.9 0.8-1.1 2.4-1.3l11.1-2.4v-117l-11.1-2.4q-1.6-0.4-2.4-1.4-0.8-1-0.8-2.8v-8.1h32v59.2q6.5-6.8 14.4-10.9 7.9-4.2 18-4.2 11.1 0 18.6 4.8 7.4 4.7 11.3 13.3 3.8 8.7 3.8 20v49.5l11.2 2.4q1.6 0.2 2.4 1.3 0.8 1.1 0.8 2.9v8.1h-32v-64.2q0-11.3-5.3-17.7-5.2-6.3-16-6.3-7.8 0-14.6 3.8-6.8 3.7-12.6 10.3v59.4l-3.8-0.8-2.2 15.5zm46.3 0h-14.3v-14.7l11.1 2.4q1.6 0.2 2.4 1.3 0.8 1.1 0.8 2.9zm104.1 1.6q-7.9 0-14.3-3.1-6.4-3.1-10.1-9.1-3.8-5.9-3.8-14.7 0-5.9 3.3-11.4 3.2-5.4 10.6-9.8 7.3-4.2 19.2-7 11.8-2.8 28.9-3.2v-7.7q0-11.7-5.1-17.8-5-6.1-14.8-6.1-5.2 0-10.8 2.7-5.7 2.7-10.5 5.4-4.7 2.7-7.5 2.7-1.8 0-3.1-1-1.3-1-2.1-2.4l-3.1-5.6q8.3-8.1 18-12.1 9.6-4 21.3-4 11.3 0 19.1 4.8 7.7 4.8 11.8 13.3 4.1 8.6 4.1 20.1v49.7l11.1 2.4q1.6 0.2 2.4 1.2 0.8 1.1 0.8 2.9v8.2h-22.1q-2.6 0-4.1-0.8-1.6-0.8-2.2-3.4l-2-9.3q-8 7.1-15.9 11.1-8 4-19.1 4zm5.2-12.5q8.9-0.1 15.7-3.6 6.7-3.6 12.9-10v-20.8q-10.3 0.2-18.7 1.4-8.3 1.4-14.2 3.6-5.9 2.3-8.9 5.8-3.1 3.5-3.1 8.4 0 8 4.7 11.6 4.6 3.5 11.6 3.6zm68.3 10.9v-8.2q0-1.8 0.8-2.9 0.8-1 2.4-1.2l11.1-2.4v-117.1l-11.1-2.4q-1.6-0.4-2.4-1.4-0.8-1-0.8-2.7v-8.2h32v59.2q6.6-6.7 14.4-10.9 7.9-4.2 18-4.2 11.2 0 18.6 4.8 7.5 4.8 11.3 13.4 3.9 8.7 3.9 20v49.5l11.1 2.4q1.6 0.2 2.4 1.2 0.8 1.1 0.8 2.9v8.2h-32v-64.2q0-11.3-5.2-17.7-5.3-6.4-16-6.4-7.8 0-14.6 3.8-6.9 3.8-12.7 10.4v59.4l-3.7-0.8-2.2 15.5zm46.3 0h-14.3v-14.7l11.1 2.4q1.6 0.2 2.4 1.2 0.8 1.1 0.8 2.9zm104.1 1.6q-7.9 0-14.3-3.1-6.4-3-10.1-9-3.8-6-3.8-14.7 0-6 3.2-11.4 3.3-5.5 10.7-9.9 7.4-4.1 19.2-6.9 11.8-2.8 28.9-3.2v-7.8q0-11.7-5.1-17.8-5-6-14.8-6-5.1 0-10.8 2.7-5.7 2.7-10.4 5.3-4.8 2.7-7.6 2.7-1.8 0-3.1-1-1.3-1-2.1-2.4l-3.1-5.5q8.3-8.2 17.9-12.1 9.7-4 21.4-4 11.3 0 19.1 4.7 7.7 4.8 11.8 13.4 4.1 8.5 4.1 20v49.7l11.1 2.4q1.6 0.2 2.4 1.3 0.8 1.1 0.8 2.9v8.1h-22.1q-2.6 0-4.1-0.8-1.6-0.8-2.2-3.3l-2-9.4q-8 7.2-15.9 11.1-8 4-19.1 4zm5.2-12.5q8.9 0 15.7-3.6 6.7-3.6 12.9-9.9v-20.9q-10.3 0.2-18.7 1.5-8.3 1.3-14.2 3.6-5.9 2.3-9 5.7-3 3.5-3 8.5 0 7.9 4.6 11.5 4.7 3.6 11.7 3.6zm121 10.9v-8.1q0-1.8 0.8-2.9 0.8-1.1 2.4-1.3l11.1-2.4v-113.1l-11.1-2.3q-1.6-0.4-2.4-1.4-0.8-1-0.8-2.8v-8.2h28.6q2.6 0 3.9 0.5 1.3 0.5 2.6 2.9l49.3 87.7q1.6 2.5 2.5 5 0.9 2.5 1.9 5.3 1-2.6 2.1-5.3 1.1-2.7 2.5-5.2l48.3-87.5q1.4-2.4 2.7-2.9 1.2-0.5 3.8-0.5h28.6v8.2q0 1.8-0.7 2.8-0.8 1-2.4 1.4l-11.2 2.3v113.1l11.2 2.4q1.6 0.2 2.4 1.3 0.7 1.1 0.7 2.9v8.1h-27.2l-2.2-15.5-1.8 0.4v-89.6q0-2 0.2-4.4 0-2.4 0.2-4.9l-48.8 89q-2.4 4.6-7 4.6h-2.8q-4.4 0-6.9-4.6l-49.9-89.2q0.4 2.5 0.5 5 0.1 2.5 0.1 4.5v89.6l-1.8-0.4-2.2 15.5zm47.5 0h-16.3v-15.1l13.1 2.8q1.6 0.2 2.4 1.3 0.8 1.1 0.8 2.9zm98.2-15.1v15.1h-16.3v-8.2q0-1.8 0.8-2.9 0.8-1 2.4-1.2zm87 16.7q-10.9 0-18.5-4.9-7.5-4.9-11.4-13.4-3.9-8.6-3.9-19.9v-49.5l-11.1-2.4q-1.6-0.4-2.4-1.3-0.8-1-0.8-2.8v-8.2h32v64.2q0 11.5 5.3 17.8 5.2 6.3 16 6.3 7.7 0 14.6-3.7 6.8-3.7 12.6-10.3v-59.6l3.8 0.8 2.2-15.5h11.7v86.1l11.1 2.4q1.6 0.2 2.4 1.2 0.8 1.1 0.8 2.9v8.2h-24.9q-3.9 0-4.7-3.8l-1.4-10.7q-6.6 7.1-14.7 11.6-8.2 4.5-18.7 4.5zm18.1-102.4h14.3v14.7l-11.1-2.4q-1.6-0.4-2.4-1.3-0.8-1-0.8-2.8zm88.4 102.3q-7.1 0-16-1.6-8.8-1.6-15.2-4v-10.7l12.7 2.6-0.3-2.6q2 0.8 4.6 1.7 5.7 1.9 13.2 1.9 11.4 0 16.7-4.7 5.4-4.6 5.4-11.4 0-6-3.6-9.1-3.6-3.2-9.5-5.2-6-2-12.9-4.2-7.2-2.4-13.2-5.5-5.9-3.2-9.5-8.3-3.6-5.1-3.6-12.8 0-9 4.7-15.7 4.7-6.8 12.7-10.5 8.1-3.8 18.2-3.8 5.8 0 12.8 1.4 7.1 1.4 15.4 4.1v10.4l-12.7-2.6 0.3 2.3q-3.3-0.9-6.6-1.5-4.2-0.8-8.2-0.8-5.8 0-10.3 1.8-4.4 1.8-7 5-2.6 3.1-2.6 7.3 0 5.6 4.3 8.8 4.3 3.3 10.4 5.3 6.2 2 11.7 3.8 6.6 2 12.5 5.2 5.8 3.1 9.6 8.3 3.8 5.2 3.8 13.5 0 9-4.7 16.1-4.7 7.2-13.1 11.3-8.5 4.2-20 4.2zm22.1-87.8l10.5 1.4v13.9h-6.5q-2 0-3-0.9-1-0.9-1.2-2.3l-1.7-12.6q0.9 0.2 1.9 0.5zm-53.3 67.5v-11.5h6.6q2.2 0 3 0.9 1 0.9 1.2 2.3l1.6 12.3q-2.3-1-3.6-2zm81.8 18.7v-8.1q0.1-1.8 0.8-2.9 0.8-1.1 2.4-1.3l11.2-2.4v-71.4l-11.2-2.3q-1.6-0.4-2.4-1.4-0.7-1-0.8-2.8v-8.1h32v86l11.2 2.4q1.6 0.2 2.4 1.3 0.8 1.1 0.8 2.9v8.1zm22.8-119.8q-5 0-8.7-3.8-3.8-3.8-3.8-8.7 0-5.2 3.8-9 3.7-3.8 8.7-3.8 5.2 0 8.9 3.8 3.8 3.8 3.8 9 0 4.9-3.8 8.7-3.7 3.8-8.9 3.8zm77.3 121.2q-13.1 0-23.2-6.5-10-6.4-15.7-18.1-5.6-11.8-5.6-27.3 0-15.1 5.3-26.8 5.4-11.7 15.9-18.4 10.6-6.6 26.3-6.6 6.1 0 14.3 2 8.1 2.1 15.5 5.1v10.7l-12.8-2.5 0.2 1.2q-3-0.9-6.2-1.6-4.5-1-10.1-1-10.1 0-16.7 4.6-6.7 4.7-10.1 13.3-3.4 8.5-3.4 20 0 17.3 7.6 27.7 7.5 10.5 21.7 10.5 7.7 0 12.7-2.5 4.9-2.5 8.1-5 3.2-2.4 5-2.4 1 0 1.9 0.4 0.9 0.4 1.5 1.1l4.9 6.6q-6.5 7.9-16.3 11.7-9.7 3.8-20.8 3.8zm22.4-86.5q-1.1-0.3-2.2-0.7l1.8 13.7q0.2 1.4 1.2 2.3 1 0.9 3 0.8h6.6v-15.5z"/>
	<path id="Path 4" class="s0" d="m875.1 480.9c-12.4-112.9-94.3-225.3-224.7-308.4-129-82.1-131.5-159.3-131.5-162.5v-10h-103.6v871c-43.4-26.1-97.1-41.8-155.5-41.8-143.1 0-259.1 92.8-259.1 207.4 0 114.4 116 207.3 259.1 207.3 143.1 0 259.1-92.9 259.1-207.3v-747.9c22.7 17.8 48.4 31.4 75.8 40.4 250.3 83.4 234.9 346.6 185.5 396 71.7-71.7 104.6-156.2 94.9-244.2z"/>
</svg>