<svg class="img-fluid" id="outputsvg" xmlns="http://www.w3.org/2000/svg" style="transform: matrix(1, 0, 0, 1, 0, 0); transform-origin: 50% 50%; cursor: move; transition: transform 200ms ease-in-out 0s;" width="2362" height="709" viewBox="0 0 23620 7090">
    <g id="l6VxeLFYOPkF196i6UbTuJl" fill="rgb(30,215,96)" style="transform: none;">
        <g>
            <path id="pdEmDNcxe" d="M3390 7019 c-605 -53 -1154 -244 -1650 -574 -181 -121 -303 -217 -454 -358 -840 -783 -1238 -1931 -1066 -3070 212 -1398 1264 -2540 2640 -2866 308 -73 535 -96 888 -88 266 6 392 19 607 62 1332 270 2393 1295 2704 2615 82 347 112 761 81 1110 -72 801 -416 1546 -979 2124 -567 580 -1284 934 -2091 1032 -152 18 -536 26 -680 13z m1785 -1848 c83 -37 131 -121 123 -216 -8 -90 -43 -135 -161 -206 -391 -232 -887 -402 -1367 -468 -260 -36 -408 -44 -735 -38 -397 7 -652 34 -1040 113 -240 48 -243 49 -296 104 -58 59 -75 120 -58 201 20 91 116 169 209 169 14 0 100 -15 190 -34 180 -38 366 -67 572 -92 185 -22 658 -30 845 -14 541 45 1011 185 1438 430 55 31 107 60 115 63 33 12 126 6 165 -12z m411 -934 c97 -49 148 -135 148 -247 -1 -122 -52 -190 -218 -285 -546 -312 -1216 -514 -1951 -587 -200 -20 -820 -17 -1013 5 -300 34 -640 101 -855 169 -122 38 -195 125 -205 244 -12 156 93 281 246 292 56 3 89 -2 197 -32 562 -155 1234 -188 1875 -91 504 76 999 238 1384 454 83 46 169 90 191 97 56 19 141 11 201 -19z m428 -1063 c58 -20 147 -100 175 -157 63 -130 41 -278 -57 -380 -44 -46 -159 -113 -353 -206 -607 -293 -1349 -469 -2199 -522 -210 -13 -836 -7 -1020 11 -457 42 -1002 151 -1142 227 -143 78 -205 266 -136 414 53 116 152 187 273 196 48 4 86 -2 190 -31 417 -114 875 -169 1415 -169 389 0 682 22 1029 79 598 96 1044 242 1519 499 99 53 105 55 180 55 46 0 98 -7 126 -16z"></path>
            <path id="pcGvDZsjJ" d="M20719 5880 c-169 -19 -440 -115 -454 -161 -7 -20 177 -430 199 -443 10 -7 35 0 84 22 186 86 346 80 441 -17 25 -25 59 -71 75 -101 l28 -55 -367 -880 c-202 -484 -376 -901 -387 -927 l-20 -48 -254 0 -254 0 0 933 c0 712 -3 936 -12 945 -17 17 -569 17 -586 0 -9 -9 -12 -233 -12 -945 l0 -933 -138 0 c-94 0 -142 -4 -150 -12 -17 -17 -17 -499 0 -516 8 -8 56 -12 149 -12 l136 0 6 -162 c6 -189 24 -275 87 -407 76 -159 227 -279 407 -326 158 -40 407 -37 598 6 147 34 135 9 135 289 0 279 1 277 -77 254 -149 -46 -310 -57 -395 -28 -58 19 -112 73 -133 133 -9 25 -19 90 -22 144 l-6 97 465 0 c356 0 468 3 480 13 9 6 157 379 328 827 171 448 315 818 319 823 4 4 137 -364 296 -819 198 -565 294 -828 306 -835 10 -5 143 -9 296 -9 303 0 321 3 311 51 -4 18 -794 2067 -945 2449 -40 101 -120 258 -171 333 -62 93 -183 205 -265 245 -129 64 -324 92 -498 72z"></path>
            <path id="p2zjLBzmr" d="M10927 5863 c-4 -3 -7 -704 -7 -1558 0 -1193 3 -1554 12 -1563 9 -9 87 -12 289 -12 239 0 280 2 293 16 13 13 16 42 16 156 l0 141 85 -82 c180 -173 362 -255 610 -276 312 -27 688 132 896 378 202 240 299 525 299 882 0 364 -101 655 -309 894 -227 261 -603 405 -947 361 -221 -27 -401 -112 -565 -267 l-69 -65 0 489 c0 367 -3 492 -12 501 -9 9 -89 12 -298 12 -158 0 -290 -3 -293 -7z m1409 -1219 c224 -58 392 -251 446 -513 26 -123 20 -307 -12 -421 -67 -233 -236 -410 -446 -465 -76 -20 -242 -20 -319 0 -227 59 -402 247 -465 499 -27 108 -27 290 0 403 37 155 129 303 242 389 96 72 176 104 318 128 41 7 178 -4 236 -20z"></path>
            <path id="p1Ai8DVwCY" d="M14655 5195 c-181 -33 -364 -107 -512 -206 -99 -66 -265 -232 -330 -329 -144 -215 -213 -444 -213 -704 0 -490 263 -917 695 -1131 131 -64 207 -91 335 -115 141 -27 261 -34 385 -21 311 33 565 148 782 354 104 99 184 211 254 352 95 195 137 396 126 609 -28 565 -407 1024 -965 1168 -105 27 -136 31 -297 34 -129 2 -203 -1 -260 -11z m390 -540 c179 -37 348 -167 433 -332 63 -121 84 -212 85 -363 0 -152 -17 -230 -77 -355 -79 -162 -220 -286 -390 -342 -72 -24 -97 -27 -216 -27 -122 0 -143 2 -215 28 -215 75 -361 232 -427 461 -30 105 -32 324 -4 425 74 273 283 469 546 513 59 10 200 6 265 -8z"></path>
            <path id="p29T8Eo4v" d="M9300 5190 c-339 -47 -650 -172 -917 -369 -116 -84 -175 -139 -171 -156 5 -24 348 -425 363 -425 8 0 52 30 97 67 289 233 553 333 878 333 211 0 334 -36 429 -125 72 -67 96 -128 96 -240 -1 -106 -18 -147 -88 -212 -88 -81 -219 -132 -557 -218 -124 -31 -286 -77 -359 -101 -405 -135 -620 -320 -701 -604 -28 -96 -38 -316 -21 -426 53 -327 283 -592 618 -713 370 -135 883 -95 1279 100 148 72 364 219 364 247 0 17 -312 447 -326 450 -8 2 -54 -23 -102 -56 -369 -251 -775 -330 -1038 -201 -130 64 -190 166 -182 308 12 204 133 279 673 420 467 121 676 218 851 395 104 105 164 220 195 371 27 129 22 327 -11 450 -97 357 -364 591 -785 687 -72 16 -134 21 -305 23 -118 2 -244 0 -280 -5z"></path>
            <path id="p10wgt1dyk" d="M17075 5190 c-270 -43 -439 -187 -516 -440 -23 -75 -23 -79 -27 -777 l-3 -703 -137 0 c-94 0 -142 -4 -150 -12 -9 -9 -12 -80 -12 -258 0 -178 3 -249 12 -258 8 -8 56 -12 150 -12 l138 0 2 -317 3 -318 294 -3 c229 -2 296 1 303 10 4 7 8 151 8 321 l0 307 303 0 c222 0 306 3 315 12 9 9 12 80 12 258 0 178 -3 249 -12 258 -9 9 -93 12 -315 12 l-304 0 3 613 3 612 23 42 c12 24 41 55 64 70 36 24 52 28 140 31 115 5 196 -8 290 -48 102 -42 99 -51 96 235 l-3 240 -73 38 c-112 59 -239 88 -407 92 -77 2 -167 0 -200 -5z"></path>
            <path id="pUiJu58Bc" d="M18042 5148 c-17 -17 -17 -2389 0 -2406 17 -17 569 -17 586 0 17 17 17 2389 0 2406 -9 9 -88 12 -293 12 -205 0 -284 -3 -293 -12z"></path>
            <path id="p1BUkzPOno" d="M18238 2416 c-70 -20 -129 -59 -186 -121 -171 -186 -110 -482 123 -596 187 -91 416 -8 511 186 26 54 29 69 29 160 -1 88 -4 107 -28 156 -65 133 -186 217 -328 224 -45 3 -92 -1 -121 -9z"></path>
        </g>
    </g>
</svg>